# xmcd CD database file
#
# Track frame offsets:
#	150
#	10778
#	19403
#	32923
#	38333
#	48045
#	59390
#	72020
#	82700
#	90595
#	96410
#	105503
#	115285
#	124285
#	133523
#	144170
#	155230
#	163938
#
# Disc length: 2366 seconds
#
# Revision: 0
# Processed by: cddbd v1.5.2PL0 Copyright (c) Steve Scherf et al.
# Submitted via: CDex 1.70beta2
#
DISCID=e4093c12
DTITLE=Charlie Byrd - The Charlie Byrd Christmas Album
DYEAR=1982
DGENRE=Jazz
TTITLE0=O Come All Ye Faithful [Instrumental]
TTITLE1=Deck The Halls [Instrumental]
TTITLE2=Mistletoe And Holly [Instrumental]
TTITLE3=Lully, Lullay [Instrumental]
TTITLE4=What Child Is This [Instrumental]
TTITLE5=Hark! The Herald Angels Sing [Instrumental]
TTITLE6=The Chistmas Song [Instrumental]
TTITLE7=Coventry Carol [Instrumental]
TTITLE8=Silent Night [Instrumental]
TTITLE9=Good King Wencelas [Instrumental]
TTITLE10=The First Noel [Instrumental]
TTITLE11=In The Bleak Midwinter [Instrumental]
TTITLE12=God Rest Ye Merry Gentlemen [Instrumental]
TTITLE13=O Christmas Tree [Instrumental]
TTITLE14=White Christmas [Instrumental]
TTITLE15=Angels We Have Heard On High [Instrumental]
TTITLE16=Holly And The Ivy [Instrumental]
TTITLE17=Have Yourself A Merry Little Christmas [Instrumental]
EXTD=YEAR: 1982
EXTT0=
EXTT1=
EXTT2=
EXTT3=
EXTT4=
EXTT5=
EXTT6=
EXTT7=
EXTT8=
EXTT9=
EXTT10=
EXTT11=
EXTT12=
EXTT13=
EXTT14=
EXTT15=
EXTT16=
EXTT17=
PLAYORDER=
